<svg id="Symbol_1_1" data-name="Symbol 1 – 1" xmlns="http://www.w3.org/2000/svg" xmlns:xlink="http://www.w3.org/1999/xlink" viewBox="1632 990.818 220 33.602">
  <defs>
    <style>
      .cls-1 {
        fill: none;
      }

      .cls-2 {
        clip-path: url(#clip-path);
      }

      .cls-3 {
        fill: #2b2e34;
      }

      .cls-4 {
        fill: #95a19e;
      }

      .cls-5 {
        fill: #be261c;
      }
    </style>
    <clipPath id="clip-path">
      <path id="Path_25" data-name="Path 25" class="cls-1" d="M0-66H220v33.6H0Z" transform="translate(0 65.999)"/>
    </clipPath>
  </defs>
  <g id="Group_23" data-name="Group 23" class="cls-2" transform="translate(1632 990.818)">
    <g id="Group_10" data-name="Group 10" transform="translate(62.991 1.404)">
      <path id="Path_12" data-name="Path 12" class="cls-3" d="M-9.609-9.492c1.375,0,2.677-.061,3.969.015a3.6,3.6,0,0,0,3.65-2.231A11.959,11.959,0,0,0-.755-17.061a1.475,1.475,0,0,0-1.561-1.649c-1.421-.059-2.846-.041-4.269-.078-.378-.01-.468.181-.552.492-.479,1.762-.978,3.518-1.472,5.275-.323,1.148-.65,2.295-1,3.528M2.1.5A3.134,3.134,0,0,1-.531,2.29a7.669,7.669,0,0,1-2.4-.246A2.731,2.731,0,0,1-5.087-1.481c.32-1.463.815-2.887,1.2-4.337a6.642,6.642,0,0,0,.2-1.443A1.241,1.241,0,0,0-4.787-8.7a5.285,5.285,0,0,0-1.2-.172q-1.71-.034-3.42.007a.6.6,0,0,0-.452.333c-.928,3.3-1.833,6.608-2.739,9.914-.009.033.02.075.049.178h2.212l.108.2c-.18.136-.359.388-.54.389-2.87.022-5.741.013-8.612.008a.6.6,0,0,1-.169-.055c-.092-.415.086-.563.483-.547.427.017.857-.022,1.282.011.4.031.562-.121.667-.506,1.085-3.952,2.19-7.9,3.289-11.848q1.068-3.841,2.133-7.683c.02-.074.035-.15.069-.3h-2.278c-.092-.494.141-.571.5-.569,1.221.009,2.443,0,3.665,0,2.768.01,5.537-.01,8.3.057a7.722,7.722,0,0,1,2.315.47,3.47,3.47,0,0,1,2.446,3.96C3.063-11.551,1.06-9.6-2.309-9.17c-.362.046-.723.1-1.215.168.446.137.779.232,1.106.343C-.42-7.986.539-6.631.123-4.105-.1-2.73-.565-1.393-.92-.039a1.15,1.15,0,0,0-.088.413c.06.417.03,1.062.265,1.188A1.735,1.735,0,0,0,.542,1.429c.35-.15.6-.533.906-.794A4.413,4.413,0,0,1,1.968.3L2.1.5" transform="translate(19.575 19.338)"/>
    </g>
    <g id="Group_11" data-name="Group 11" transform="translate(0 0.691)">
      <path id="Path_13" data-name="Path 13" class="cls-4" d="M-4.752-16.483c.211.011.422.031.632.032,3.725,0,7.451-.007,11.176.011a.918.918,0,0,0,1-.584c.2-.462.483-.889.751-1.37l.664.2c-.35.7-.7,1.36-1.008,2.034q-.939,2.051-1.838,4.119c-.125.286-.246.453-.607.452q-7.634-.02-15.267-.011c-.1,0-.193-.022-.431-.051.378-.7.693-1.348,1.069-1.96A13.29,13.29,0,0,1-4.09-17.9c1.229-.757,2.489-1.464,3.718-2.222a8.243,8.243,0,0,0,4.156-5.253,8.586,8.586,0,0,0,.145-3.569c-.565-2.8-3.136-4.208-5.994-3.244a5.315,5.315,0,0,0-1.772,1.02c-.685.6-.556,1.264.223,1.744.328.2.683.359,1.025.538A2.332,2.332,0,0,1-1.266-25.9a2.563,2.563,0,0,1-2.928,1.541,2.919,2.919,0,0,1-2.468-2.9,5.059,5.059,0,0,1,3.1-5.153,11.431,11.431,0,0,1,9.521-.254c4.171,1.671,4.726,7.441,1.337,10.13A19.531,19.531,0,0,1,2.79-20Q-.734-18.482-4.253-16.95a5.321,5.321,0,0,0-.54.314c.013.051.027.1.041.153" transform="translate(9.681 33.58)"/>
    </g>
    <g id="Group_12" data-name="Group 12" transform="translate(42.487 0.721)">
      <path id="Path_14" data-name="Path 14" class="cls-4" d="M-19.364-8a8.5,8.5,0,0,0-1.164-4.568,4.4,4.4,0,0,0-4.593-2.323,6.388,6.388,0,0,0-3.767,1.964,16.865,16.865,0,0,0-4.136,7.766,14.211,14.211,0,0,0-.486,6.742c.515,2.444,2.227,3.822,4.458,3.611a7.518,7.518,0,0,0,4.136-1.635C-21.26.572-19.718-3.435-19.364-8M-30.577,6.205a8.666,8.666,0,0,1-6.077-1.928,7.988,7.988,0,0,1-2.767-5.847,13.809,13.809,0,0,1,7.929-13.568,10.965,10.965,0,0,1,7.842-.741,6.539,6.539,0,0,1,4.862,5.967A15.358,15.358,0,0,1-24.61,4.216a9.393,9.393,0,0,1-5.967,1.989" transform="translate(39.449 16.3)"/>
    </g>
    <g id="Group_13" data-name="Group 13" transform="translate(20.516 0.724)">
      <path id="Path_15" data-name="Path 15" class="cls-4" d="M-19.343-7.982a9.149,9.149,0,0,0-.909-4.09,4.675,4.675,0,0,0-6.668-2.236,9.634,9.634,0,0,0-3.874,3.873,21.088,21.088,0,0,0-2.8,8.185,9.49,9.49,0,0,0,.454,4.982,3.662,3.662,0,0,0,3.029,2.432A6.472,6.472,0,0,0-25.339,3.89c4.019-2.927,5.589-7.117,6-11.872M-30.652,6.242a8.674,8.674,0,0,1-5.726-1.719,7.725,7.725,0,0,1-3.016-6.089c-.193-5.821,2.123-10.363,7.3-13.219a10.954,10.954,0,0,1,8.142-1.144,6.817,6.817,0,0,1,5.225,6.2,15.824,15.824,0,0,1-5.12,13.4,10,10,0,0,1-6.8,2.571" transform="translate(39.405 16.261)"/>
    </g>
    <g id="Symbol_2_1" data-name="Symbol 2 – 1">
      <g id="Group_8" data-name="Group 8" transform="translate(174.397 0.316)">
        <path id="Path_10" data-name="Path 10" class="cls-5" d="M-4.842-17.628C-2.991-23.53-.884-29.366.189-35.44c1.316.515,2.569,1.119,3.887,1.5,3.073.886,5.928.547,8.309-1.827a1.469,1.469,0,0,1,.21-.144c-.389,4.311-5.82,9.257-13.14,7.121l-2.618,8.215.109.074c.274-.247.554-.49.822-.743a8.138,8.138,0,0,1,9.521-1.076,7.279,7.279,0,0,1,3.324,7.408C9.891-10.171,7.1-6.872,3.12-4.481A12.677,12.677,0,0,1-4.41-2.657,5.82,5.82,0,0,1-9.769-6.993a3.62,3.62,0,0,1,3.9-4.574,2.649,2.649,0,0,1,2.238,2.4A2.4,2.4,0,0,1-5.194-6.442a7.2,7.2,0,0,0-.83.383,1.15,1.15,0,0,0-.118,2.132,4.133,4.133,0,0,0,3.605.6A6.2,6.2,0,0,0,.883-5.944a20.2,20.2,0,0,0,3.1-7.5,17.077,17.077,0,0,0,.508-5.986C4.161-21.951,2.44-22.723.272-22.011A6.428,6.428,0,0,0-2.1-20.375a17.267,17.267,0,0,0-1.926,2.585c-.237.35-.435.434-.816.161" transform="translate(9.864 35.912)"/>
      </g>
      <g id="Group_9" data-name="Group 9" transform="translate(197.777 0)">
        <path id="Path_11" data-name="Path 11" class="cls-5" d="M-18.513-17.6c-.4-.367-.8-.686-1.142-1.055-.259-.278-.218-.55.188-.7a2.113,2.113,0,0,0,.6-.277.64.64,0,0,0,.145-.964.761.761,0,0,0-.157-.185c-1.2-.859-1.166-1.967-.689-3.2a4.89,4.89,0,0,0-.624-4.559,5.254,5.254,0,0,0-3.587-2.655,7.04,7.04,0,0,0-4.537.407c-.257.12-.531.2-.791.319a2.953,2.953,0,0,0-1.946,2.235,17.242,17.242,0,0,1-.725,2,1.291,1.291,0,0,0-.047.87c.226.438.046.714-.17,1.049a21.591,21.591,0,0,0-1.156,1.928c-.275.544-.071.794.52.953a1.091,1.091,0,0,1,.544.5,4.729,4.729,0,0,1,.329.8,14.389,14.389,0,0,0-.3,2.106c0,.2.452.46.742.592.827.376,1.68.694,2.516,1.051a3.177,3.177,0,0,1,.508.368c-.763.32-.745.687-.249,1.208a2.877,2.877,0,0,1,.389,1l-.187-.034c-.088.262-.164.529-.268.785a.776.776,0,0,1-.252.381,9.3,9.3,0,0,1-.914.413l.3.308A8.1,8.1,0,0,1-37.313-18.2a14.117,14.117,0,0,1,3.581-13.169,13.05,13.05,0,0,1,10.49-4.468c4.494.132,7.514,3.181,7.732,7.74a17.918,17.918,0,0,1-2.851,10.308,1.847,1.847,0,0,1-.151.195" transform="translate(37.715 35.847)"/>
      </g>
      <g id="Group_14" data-name="Group 14" transform="translate(162.632 1.212)">
        <path id="Path_16" data-name="Path 16" class="cls-5" d="M-5.062-.831c-.011-.622.185-.867.818-.862,3.929.031,7.859.015,11.788.015H8.13c.036.657-.221.884-.827.842-.709-.049-1.426.012-2.137-.02-.405-.018-.553.14-.659.518Q2.643,6.359.747,13.045q-.76,2.7-1.512,5.4c-.038.134-.064.272-.116.5H2.787c.009.6-.126.877-.754.873C-1.9,19.79-5.826,19.8-9.756,19.8h-.557l.214-.831c.82,0,1.612-.03,2.4.011a.723.723,0,0,0,.875-.646C-5.33,12.847-3.806,7.364-2.291,1.879c.242-.878.483-1.757.745-2.71Z" transform="translate(10.313 1.693)"/>
      </g>
    </g>
    <g id="Group_15" data-name="Group 15" transform="translate(135.839 9.088)">
      <path id="Path_17" data-name="Path 17" class="cls-3" d="M-14.629-10.251l.311.218a6.451,6.451,0,0,1-2.229,2.577,5.6,5.6,0,0,1-2.092.732,2.445,2.445,0,0,1-2.661-3.2c.734-2.468,1.608-4.894,2.418-7.339.211-.635.428-1.27.6-1.915.148-.549-.125-.876-.666-.733a3.519,3.519,0,0,0-1.29.64,10.315,10.315,0,0,0-3.749,5.688c-.482,2.011-1.136,3.979-1.688,5.974a.642.642,0,0,1-.761.556c-1.09-.033-2.182-.011-3.37-.011l3.648-12.666H-27.8c-.127-.495.058-.619.478-.623,1.3-.014,2.6-.024,3.9-.112a8.663,8.663,0,0,0,1.6-.422L-22.9-17.5l.095.067c.4-.43.783-.867,1.187-1.287a5.655,5.655,0,0,1,2.532-1.74,5.634,5.634,0,0,1,1.976-.2,2.42,2.42,0,0,1,2.1,3.305c-.689,2.353-1.538,4.659-2.315,6.986a10.743,10.743,0,0,0-.448,1.452,3.4,3.4,0,0,0,.1.963c.34-.052.786.014,1-.179.7-.63,1.323-1.355,2.041-2.112" transform="translate(29.803 20.884)"/>
    </g>
    <g id="Group_16" data-name="Group 16" transform="translate(86.384 9.234)">
      <path id="Path_18" data-name="Path 18" class="cls-3" d="M-4.807-13.115a2.606,2.606,0,0,0,2.462-1.937,45.138,45.138,0,0,0,2.5-9.391A1.452,1.452,0,0,0-1.3-26.277a2.326,2.326,0,0,0-2.489,1.484,24.706,24.706,0,0,0-1.369,3.575c-.553,1.967-1.044,3.959-1.42,5.966a1.67,1.67,0,0,0,1.767,2.137m-4.986-4.954a8.738,8.738,0,0,1,6.979-8.545A5,5,0,0,1,3.219-22.3a8.6,8.6,0,0,1-6.583,9.473,5,5,0,0,1-6.294-3.855,11.558,11.558,0,0,1-.135-1.391" transform="translate(9.793 26.719)"/>
    </g>
    <g id="Group_17" data-name="Group 17" transform="translate(113.383 9.246)">
      <path id="Path_19" data-name="Path 19" class="cls-3" d="M-1.461-11.841a2.675,2.675,0,0,0,.361.408,4.971,4.971,0,0,0,4.475.649,2.1,2.1,0,0,0,1.485-1.834,1.951,1.951,0,0,0-.9-1.994c-.431-.3-.9-.556-1.349-.827-.4-.24-.811-.465-1.208-.711a3.566,3.566,0,0,1-1.355-4.84,5.3,5.3,0,0,1,4.693-3.1,5.568,5.568,0,0,1,3.246.637A2.309,2.309,0,0,1,9.231-20.64a1.666,1.666,0,0,1-1.859,1.314A1.678,1.678,0,0,1,5.8-20.913,1.681,1.681,0,0,1,6.987-22.8c.129-.045.256-.1.487-.184a3.175,3.175,0,0,0-2.253-.7,4.325,4.325,0,0,0-1.746.441A1.965,1.965,0,0,0,3.2-19.734c.457.333.987.565,1.466.87A13.528,13.528,0,0,1,6.72-17.471,3.938,3.938,0,0,1,6.6-11.754a7.244,7.244,0,0,1-7.716.91A2.946,2.946,0,0,1-2.9-14.166,1.763,1.763,0,0,1-.961-15.642a1.859,1.859,0,0,1,1.707,1.83A1.708,1.708,0,0,1-.793-11.937c-.174.031-.35.051-.668.1" transform="translate(2.977 24.123)"/>
    </g>
    <g id="Group_18" data-name="Group 18" transform="translate(100.461 9.251)">
      <path id="Path_20" data-name="Path 20" class="cls-3" d="M-1.415-11.849a4.235,4.235,0,0,0,2.728,1.261,5.647,5.647,0,0,0,1.872-.129,2.167,2.167,0,0,0,1.764-1.872,1.985,1.985,0,0,0-1.006-2.119c-.817-.531-1.693-.97-2.506-1.5a3.412,3.412,0,0,1-1.583-4,4.683,4.683,0,0,1,1.678-2.619,6.144,6.144,0,0,1,6.489-.673,2.348,2.348,0,0,1,1.225,3.077,1.668,1.668,0,0,1-1.906,1.067,1.679,1.679,0,0,1-1.456-1.63,1.656,1.656,0,0,1,1.071-1.792c.182-.069.365-.136.573-.213a3.661,3.661,0,0,0-4.743.338,1.9,1.9,0,0,0,.233,2.68,11.159,11.159,0,0,0,1.479.957c.47.281.963.523,1.437.8a4.056,4.056,0,0,1-.355,7.212A6.912,6.912,0,0,1-1.242-11a2.834,2.834,0,0,1-1.6-3.023A1.793,1.793,0,0,1-.92-15.663,1.8,1.8,0,0,1,.812-13.941,1.7,1.7,0,0,1-.72-11.955c-.173.03-.348.053-.7.106" transform="translate(2.883 24.139)"/>
    </g>
    <g id="Group_19" data-name="Group 19" transform="translate(153.357 8.986)">
      <path id="Path_21" data-name="Path 21" class="cls-3" d="M-2.939-1.186H-4.794l.13-.551c1.988-.2,4.017.342,5.979-.68C.852-.9.42.53-.016,1.958c-.763,2.5-1.54,5-2.274,7.508-.1.349-.146.918.051,1.108.376.363.866.043,1.179-.268C-.446,9.7.11,9.025.744,8.321l.379.2C.182,10-.735,11.433-2.576,11.795c-2.34.46-3.9-1.122-3.27-3.406C-5.108,5.712-4.235,3.072-3.422.416c.153-.5.3-1,.483-1.6" transform="translate(5.987 2.417)"/>
    </g>
    <g id="Group_20" data-name="Group 20" transform="translate(127.458 8.975)">
      <path id="Path_22" data-name="Path 22" class="cls-3" d="M-7.055,0c-.559,1.834-1.077,3.537-1.6,5.239-.685,2.249-1.386,4.494-2.039,6.753a3.08,3.08,0,0,0,.089,1.067c.357-.078.816-.044,1.052-.257.672-.6,1.252-1.31,1.932-2.044l.355.177a7.2,7.2,0,0,1-2.705,2.956,3.41,3.41,0,0,1-2.714.24,2.442,2.442,0,0,1-1.554-3.249c.758-2.671,1.608-5.316,2.418-7.973.158-.519.314-1.04.492-1.634h-1.792c.016-.234.027-.4.039-.577,1.988-.217,4.029.345,6.021-.7" transform="translate(14.372)"/>
    </g>
    <g id="Group_21" data-name="Group 21" transform="translate(132.029 2.348)">
      <path id="Path_23" data-name="Path 23" class="cls-3" d="M0-2.087A2.1,2.1,0,0,1,2.084-4.252,2.162,2.162,0,0,1,4.246-2.14,2.114,2.114,0,0,1,2.136,0,2.054,2.054,0,0,1,0-2.087" transform="translate(0 4.252)"/>
    </g>
    <g id="Group_22" data-name="Group 22" transform="translate(157.903 2.344)">
      <path id="Path_24" data-name="Path 24" class="cls-3" d="M-2.057-4.107a2.078,2.078,0,0,1-2.134-2.1A2.152,2.152,0,0,1-2.076-8.366,2.2,2.2,0,0,1,.078-6.233,2.139,2.139,0,0,1-2.057-4.107" transform="translate(4.191 8.366)"/>
    </g>
  </g>
</svg>
